<svg  viewBox="0 0 293 35" fill="none" xmlns="http://www.w3.org/2000/svg">
<g>
<g >
<path d="M5.53537 15.0958V30.7461H0.484375V4.25391L14.8865 18.4884L29.3076 4.25391V30.7461H24.2566V15.0958L14.8865 24.4901L5.53537 15.0958Z" fill="#EEF0F2"/>
<path d="M50.6855 4.25391L65.1448 30.7461H59.381L56.8935 26.0405H44.5347L42.0853 30.7461H36.3215L50.6855 4.25391ZM50.6855 13.6819L46.4256 22.0868H55.0449L50.6855 13.6819Z" fill="#EEF0F2"/>
<path d="M157.354 28.3597C155.22 30.1775 152.269 31.0865 148.504 31.0865C144.752 31.0865 141.807 30.1775 139.673 28.3597C137.539 26.553 136.473 24.0525 136.473 20.8581V4.7645H141.64V20.7907C141.64 22.6442 142.242 24.0786 143.443 25.0961C144.644 26.1135 146.332 26.6222 148.504 26.6222C150.689 26.6222 152.38 26.1135 153.574 25.0961C154.769 24.0786 155.368 22.6442 155.368 20.7907V4.7645H160.554V20.8581C160.554 24.0525 159.488 26.553 157.354 28.3597Z" fill="#EEF0F2"/>
<path d="M180.951 4.25392L195.41 30.7461H189.647L187.159 26.0405H174.8L172.351 30.7461H166.585L180.951 4.25392ZM180.951 13.6819L176.689 22.0868H185.308L180.951 13.6819Z" fill="#EEF0F2"/>
<path d="M202.443 4.7645H207.61V26.3136H220.798V30.7461H202.443V4.7645Z" fill="#EEF0F2"/>
<path d="M234.136 4.7645V30.7461H228.969V4.7645H234.136Z" fill="#EEF0F2"/>
<path d="M244.236 4.7645H262.591V9.19702H249.404V15.9823H260.508V20.3812H249.404V30.7461H244.236V4.7645Z" fill="#EEF0F2"/>
<path d="M273.055 4.7645L280.035 16.9193L287.073 4.7645H292.915L282.637 21.4883V30.7461H277.469V21.4883L267.194 4.7645H273.055Z" fill="#EEF0F2"/>
</g>
<path d="M84 0L67 17L84 34H95L78 17L87.9434 7.05664L102.283 32.7168L102.277 32.7227L103 34H112L129 17L112 4.1008e-05H101L118 17L108.057 26.9434L93 0H84Z" fill="url(#paint0_linear_341_1205)"/>
<path opacity="0.15" d="M86.2053 8.79458L87.9433 7.05664L83.9999 0L82.2356 1.83241L86.2053 8.79458Z" fill="black"/>
<path opacity="0.15" d="M112 34L113.782 32.2183L109.809 25.1906L108.057 26.9434L112 34Z" fill="black"/>
</g>
<defs>
<linearGradient id="paint0_linear_341_1205" x1="67" y1="17" x2="129" y2="17" gradientUnits="userSpaceOnUse">
<stop stop-color="#FFB100"/>
<stop offset="1" stop-color="#EE6352"/>
</linearGradient>
</defs>
</svg>
