<svg width="556" height="310" viewBox="0 0 556 310" fill="none" xmlns="http://www.w3.org/2000/svg">
<g clip-path="url(#clip0_482_79)">
<mask id="mask0_482_79" style="mask-type:luminance" maskUnits="userSpaceOnUse" x="-80" y="-64" width="641" height="428">
<path d="M-79.2668 -63.3577H560.958V363.257H-79.2668V-63.3577Z" fill="white"/>
</mask>
<g mask="url(#mask0_482_79)">
<path d="M152.722 93.9838C139.097 93.9838 128.067 82.937 128.067 69.3187C128.067 55.7207 139.097 44.674 152.722 44.674C166.347 44.674 177.377 55.7207 177.377 69.3187C177.377 82.937 166.347 93.9838 152.722 93.9838ZM188.268 73.6983V64.9535C188.268 64.0977 187.574 63.4041 186.719 63.4041H184.467C183.807 63.4041 183.224 62.9561 183.076 62.3136C182.297 58.9178 180.969 55.731 179.179 52.859C178.822 52.2856 178.889 51.5467 179.367 51.0698L180.951 49.4862C181.556 48.8813 181.556 47.9009 180.951 47.296L174.764 41.1126C174.159 40.5077 173.177 40.5077 172.572 41.1126L170.99 42.6928C170.513 43.1706 169.773 43.238 169.2 42.8805C166.327 41.0896 163.138 39.7611 159.739 38.9812C159.096 38.8336 158.648 38.25 158.648 37.5913V35.3473C158.648 34.4915 157.955 33.7987 157.098 33.7987H148.349C147.493 33.7987 146.799 34.4915 146.799 35.3473V37.5913C146.799 38.25 146.351 38.8336 145.708 38.9804C142.309 39.7602 139.119 41.0887 136.246 42.8796C135.672 43.2371 134.932 43.1697 134.455 42.6919L132.875 41.1126C132.27 40.5077 131.288 40.5077 130.683 41.1126L124.497 47.296C123.891 47.9009 123.891 48.8813 124.497 49.4862L126.078 51.0672C126.556 51.545 126.624 52.2839 126.267 52.8573C124.476 55.7301 123.149 58.9178 122.368 62.3136C122.221 62.9561 121.638 63.4041 120.979 63.4041H118.729C117.873 63.4041 117.179 64.0977 117.179 64.9535V73.6983C117.179 74.5541 117.873 75.2477 118.729 75.2477H120.98C121.639 75.2477 122.222 75.6948 122.369 76.3373C123.15 79.734 124.479 82.9208 126.269 85.7919C126.626 86.3653 126.559 87.1042 126.081 87.582L124.497 89.1648C123.891 89.7697 123.891 90.7509 124.497 91.3559L130.683 97.5392C131.288 98.1441 132.27 98.1441 132.875 97.5392L134.46 95.9548C134.937 95.477 135.677 95.4095 136.25 95.7662C139.123 97.5546 142.311 98.8796 145.708 99.6595C146.351 99.8071 146.799 100.39 146.799 101.049V103.304C146.799 104.16 147.493 104.853 148.349 104.853H157.098C157.955 104.853 158.648 104.16 158.648 103.304V101.049C158.648 100.389 159.096 99.8062 159.739 99.6586C163.136 98.8796 166.324 97.5537 169.196 95.7653C169.769 95.4087 170.508 95.4761 170.986 95.9539L172.572 97.5392C173.177 98.1441 174.159 98.1441 174.764 97.5392L180.951 91.3559C181.556 90.7509 181.556 89.7697 180.95 89.1648L179.365 87.5812C178.887 87.1034 178.819 86.3645 179.177 85.7911C180.967 82.92 182.295 79.734 183.075 76.3373C183.222 75.6948 183.806 75.2477 184.465 75.2477H186.719C187.574 75.2477 188.268 74.5541 188.268 73.6983Z" stroke="#FFD470" stroke-width="1.05333" stroke-miterlimit="10"/>
<path d="M204.285 116.179C195.524 116.179 188.432 109.076 188.432 100.318C188.432 91.5745 195.524 84.4714 204.285 84.4714C213.047 84.4714 220.14 91.5745 220.14 100.318C220.14 109.076 213.047 116.179 204.285 116.179ZM228.51 103.303V97.3432C228.51 96.7596 228.037 96.2878 227.454 96.2878H225.919C225.47 96.2878 225.072 95.9823 224.971 95.5446C224.44 93.2298 223.536 91.0583 222.316 89.101C222.072 88.7103 222.118 88.2069 222.444 87.8818L223.523 86.8024C223.935 86.3903 223.935 85.7223 223.523 85.3101L219.307 81.096C218.894 80.6831 218.226 80.6831 217.814 81.096L216.736 82.1728C216.409 82.4988 215.906 82.5448 215.515 82.3008C213.557 81.0807 211.383 80.1754 209.067 79.643C208.629 79.5423 208.324 79.1456 208.324 78.6959V77.1669C208.324 76.5842 207.851 76.1115 207.268 76.1115H201.305C200.722 76.1115 200.249 76.5842 200.249 77.1669V78.6959C200.249 79.1456 199.944 79.5423 199.506 79.643C197.189 80.1746 195.015 81.0798 193.057 82.2999C192.666 82.544 192.162 82.4979 191.837 82.172L190.759 81.096C190.347 80.6839 189.679 80.6839 189.266 81.096L185.05 85.3101C184.638 85.7223 184.638 86.3903 185.05 86.8024L186.129 87.8801C186.454 88.2051 186.5 88.7094 186.257 89.1002C185.036 91.0575 184.131 93.2298 183.6 95.5446C183.499 95.9823 183.102 96.2878 182.653 96.2878H181.119C180.536 96.2878 180.063 96.7596 180.063 97.3432V103.303C180.063 103.886 180.536 104.358 181.119 104.358H182.653C183.102 104.358 183.499 104.664 183.6 105.101C184.133 107.416 185.038 109.588 186.257 111.544C186.502 111.935 186.455 112.439 186.129 112.764L185.05 113.843C184.638 114.255 184.638 114.924 185.05 115.336L189.266 119.55C189.679 119.962 190.347 119.962 190.759 119.55L191.84 118.47C192.165 118.145 192.669 118.099 193.06 118.342C195.017 119.56 197.19 120.464 199.506 120.995C199.944 121.095 200.249 121.493 200.249 121.942V123.479C200.249 124.062 200.722 124.535 201.305 124.535H207.268C207.851 124.535 208.324 124.062 208.324 123.479V121.942C208.324 121.492 208.629 121.095 209.067 120.995C211.382 120.464 213.555 119.56 215.512 118.341C215.903 118.098 216.407 118.144 216.732 118.47L217.814 119.55C218.226 119.962 218.894 119.962 219.307 119.55L223.523 115.336C223.935 114.924 223.935 114.255 223.523 113.843L222.442 112.764C222.117 112.439 222.071 111.934 222.314 111.544C223.534 109.587 224.439 107.416 224.971 105.102C225.071 104.664 225.469 104.358 225.918 104.358H227.454C228.037 104.358 228.51 103.886 228.51 103.303Z" fill="#FFD470"/>
<path d="M167.362 21.8342H162.498C162.185 21.8342 161.931 21.5808 161.931 21.2677V16.406C161.931 16.0937 162.185 15.8394 162.498 15.8394H167.362C167.675 15.8394 167.929 16.0937 167.929 16.406V21.2677C167.929 21.5808 167.675 21.8342 167.362 21.8342Z" fill="#FFE7AD"/>
<path d="M175.384 21.8342H170.52C170.208 21.8342 169.953 21.5808 169.953 21.2677V16.406C169.953 16.0937 170.208 15.8394 170.52 15.8394H175.384C175.697 15.8394 175.951 16.0937 175.951 16.406V21.2677C175.951 21.5808 175.697 21.8342 175.384 21.8342Z" fill="#FFE7AD"/>
<path d="M183.406 21.8342H178.542C178.23 21.8342 177.976 21.5808 177.976 21.2677V16.406C177.976 16.0937 178.23 15.8394 178.542 15.8394H183.406C183.72 15.8394 183.973 16.0937 183.973 16.406V21.2677C183.973 21.5808 183.72 21.8342 183.406 21.8342Z" fill="#FFE7AD"/>
<path d="M417.618 244.717H412.754C412.442 244.717 412.188 244.464 412.188 244.151V239.289C412.188 238.977 412.442 238.723 412.754 238.723H417.618C417.932 238.723 418.185 238.977 418.185 239.289V244.151C418.185 244.464 417.932 244.717 417.618 244.717Z" fill="#FFD470"/>
<path d="M425.641 244.717H420.777C420.464 244.717 420.21 244.464 420.21 244.151V239.289C420.21 238.977 420.464 238.723 420.777 238.723H425.641C425.954 238.723 426.208 238.977 426.208 239.289V244.151C426.208 244.464 425.954 244.717 425.641 244.717Z" fill="#FFD470"/>
<path d="M433.663 244.717H428.8C428.487 244.717 428.232 244.464 428.232 244.151V239.289C428.232 238.977 428.487 238.723 428.8 238.723H433.663C433.976 238.723 434.23 238.977 434.23 239.289V244.151C434.23 244.464 433.976 244.717 433.663 244.717Z" fill="#FFD470"/>
<path d="M118.327 242.204H113.463C113.15 242.204 112.896 241.951 112.896 241.638V236.777C112.896 236.464 113.15 236.21 113.463 236.21H118.327C118.64 236.21 118.893 236.464 118.893 236.777V241.638C118.893 241.951 118.64 242.204 118.327 242.204Z" fill="#FFD470"/>
<path d="M126.349 242.204H121.485C121.173 242.204 120.918 241.951 120.918 241.638V236.777C120.918 236.464 121.173 236.21 121.485 236.21H126.349C126.662 236.21 126.916 236.464 126.916 236.777V241.638C126.916 241.951 126.662 242.204 126.349 242.204Z" fill="#FFD470"/>
<path d="M134.371 242.204H129.507C129.195 242.204 128.94 241.951 128.94 241.638V236.777C128.94 236.464 129.195 236.21 129.507 236.21H134.371C134.685 236.21 134.938 236.464 134.938 236.777V241.638C134.938 241.951 134.685 242.204 134.371 242.204Z" fill="#FFD470"/>
<path d="M335.749 293.728H220.251C210.185 293.728 202.026 285.573 202.026 275.512V18.5521C202.026 8.49253 210.185 0.336517 220.251 0.336517H335.749C345.814 0.336517 353.973 8.49253 353.973 18.5521V275.512C353.973 285.573 345.814 293.728 335.749 293.728Z" fill="#7A5600"/>
<path d="M335.165 289.558H220.834C212.018 289.558 204.872 282.415 204.872 273.603V18.861C204.872 10.0488 212.018 2.9056 220.834 2.9056H335.165C343.981 2.9056 351.128 10.0488 351.128 18.861V273.603C351.128 282.415 343.981 289.558 335.165 289.558Z" fill="#FFE7AD"/>
<path d="M344.726 18.3606V272.806C344.726 278.774 339.886 283.612 333.915 283.612H222.084C216.114 283.612 211.274 278.774 211.274 272.806V18.3606C211.274 12.3931 216.114 7.55532 222.084 7.55532H240.733C241.768 7.55532 242.714 8.13893 243.178 9.06384L245.158 13.0151C246.06 14.8385 247.923 15.981 249.949 15.981H306.051C308.077 15.981 309.939 14.8385 310.842 13.0151L312.822 9.06384C313.286 8.13893 314.231 7.55532 315.267 7.55532H333.915C339.886 7.55532 344.726 12.3931 344.726 18.3606Z" fill="#FFD470"/>
<path d="M301.544 11.3586H256.358C255.307 11.3586 254.455 10.5071 254.455 9.45673C254.455 8.40641 255.307 7.55489 256.358 7.55489H301.544C302.595 7.55489 303.447 8.40641 303.447 9.45673C303.447 10.5071 302.595 11.3586 301.544 11.3586Z" fill="#FFD470"/>
<path d="M326.973 274.78H226.422C222.473 274.78 219.27 271.58 219.27 267.631V232.144C219.27 228.195 222.473 224.994 226.422 224.994H326.973C330.924 224.994 334.126 228.195 334.126 232.144V267.631C334.126 271.58 330.924 274.78 326.973 274.78Z" stroke="#E09D00" stroke-width="1.33333" stroke-miterlimit="10" stroke-linecap="round" stroke-linejoin="round" stroke-dasharray="3.78 3.78"/>
<path d="M321.877 152.61H271.997C269.148 152.61 266.838 150.301 266.838 147.453V122.812C266.838 119.964 269.148 117.655 271.997 117.655H321.877C324.727 117.655 327.037 119.964 327.037 122.812V147.453C327.037 150.301 324.727 152.61 321.877 152.61Z" stroke="#E09D00" stroke-width="1.33333" stroke-miterlimit="10" stroke-linecap="round" stroke-linejoin="round" stroke-dasharray="3.78 3.78"/>
<path d="M332.616 216.713H229.598C226.203 216.713 223.451 213.962 223.451 210.569V167.138C223.451 163.745 226.203 160.994 229.598 160.994H332.616C336.011 160.994 338.763 163.745 338.763 167.138V210.569C338.763 213.962 336.011 216.713 332.616 216.713Z" fill="#523900"/>
<path d="M334.126 162.621V206.076C334.126 209.464 331.378 212.203 327.989 212.203H225.408C222.019 212.203 219.27 209.464 219.27 206.076V162.621C219.27 159.234 222.019 156.487 225.408 156.487H327.989C331.378 156.487 334.126 159.234 334.126 162.621Z" fill="#F5AB00"/>
<path d="M258.947 207.675H228.726C226.435 207.675 224.576 205.818 224.576 203.527V173.32C224.576 171.03 226.435 169.174 228.726 169.174H258.947C261.239 169.174 263.097 171.03 263.097 173.32V203.527C263.097 205.818 261.239 207.675 258.947 207.675Z" fill="#FFE7AD"/>
<path d="M294.764 174.045H268.149C267.425 174.045 266.837 173.459 266.837 172.735C266.837 172.012 267.425 171.425 268.149 171.425H294.764C295.488 171.425 296.074 172.012 296.074 172.735C296.074 173.459 295.488 174.045 294.764 174.045Z" fill="#FFC847"/>
<path d="M282.635 179.274H268.148C267.424 179.274 266.838 178.688 266.838 177.965C266.838 177.241 267.424 176.655 268.148 176.655H282.635C283.359 176.655 283.945 177.241 283.945 177.965C283.945 178.688 283.359 179.274 282.635 179.274Z" fill="#FFC847"/>
<path d="M327.167 179.274H287.967C287.243 179.274 286.656 178.688 286.656 177.965C286.656 177.241 287.243 176.655 287.967 176.655H327.167C327.891 176.655 328.477 177.241 328.477 177.965C328.477 178.688 327.891 179.274 327.167 179.274Z" fill="#FFC847"/>
<path d="M290.562 184.504H268.148C267.425 184.504 266.837 183.918 266.837 183.194C266.837 182.471 267.425 181.885 268.148 181.885H290.562C291.286 181.885 291.873 182.471 291.873 183.194C291.873 183.918 291.286 184.504 290.562 184.504Z" fill="#FFC847"/>
<path d="M309.588 184.504H295.497C294.774 184.504 294.187 183.918 294.187 183.194C294.187 182.471 294.774 181.885 295.497 181.885H309.588C310.312 181.885 310.898 182.471 310.898 183.194C310.898 183.918 310.312 184.504 309.588 184.504Z" fill="#FFC847"/>
<path d="M327.167 184.504H314.191C313.467 184.504 312.881 183.918 312.881 183.194C312.881 182.471 313.467 181.885 314.191 181.885H327.167C327.891 181.885 328.477 182.471 328.477 183.194C328.477 183.918 327.891 184.504 327.167 184.504Z" fill="#FFC847"/>
<path d="M327.167 189.734H268.148C267.425 189.734 266.837 189.148 266.837 188.424C266.837 187.7 267.425 187.114 268.148 187.114H327.167C327.891 187.114 328.477 187.7 328.477 188.424C328.477 189.148 327.891 189.734 327.167 189.734Z" fill="#FFC847"/>
<path d="M300.63 194.963H268.148C267.425 194.963 266.837 194.377 266.837 193.654C266.837 192.93 267.425 192.344 268.148 192.344H300.63C301.354 192.344 301.94 192.93 301.94 193.654C301.94 194.377 301.354 194.963 300.63 194.963Z" fill="#FFC847"/>
<path d="M327.167 194.963H305.867C305.143 194.963 304.557 194.377 304.557 193.654C304.557 192.93 305.143 192.344 305.867 192.344H327.167C327.891 192.344 328.477 192.93 328.477 193.654C328.477 194.377 327.891 194.963 327.167 194.963Z" fill="#FFC847"/>
<path d="M287.233 200.193H268.148C267.424 200.193 266.838 199.607 266.838 198.883C266.838 198.16 267.424 197.573 268.148 197.573H287.233C287.957 197.573 288.543 198.16 288.543 198.883C288.543 199.607 287.957 200.193 287.233 200.193Z" fill="#FFC847"/>
<path d="M311.483 200.193H292.398C291.674 200.193 291.088 199.607 291.088 198.883C291.088 198.16 291.674 197.573 292.398 197.573H311.483C312.207 197.573 312.793 198.16 312.793 198.883C312.793 199.607 312.207 200.193 311.483 200.193Z" fill="#FFC847"/>
<path d="M327.167 200.193H316.093C315.37 200.193 314.783 199.607 314.783 198.883C314.783 198.16 315.37 197.573 316.093 197.573H327.167C327.891 197.573 328.478 198.16 328.478 198.883C328.478 199.607 327.891 200.193 327.167 200.193Z" fill="#FFC847"/>
<path d="M294.764 205.423H268.149C267.425 205.423 266.837 204.836 266.837 204.113C266.837 203.389 267.425 202.803 268.149 202.803H294.764C295.488 202.803 296.074 203.389 296.074 204.113C296.074 204.836 295.488 205.423 294.764 205.423Z" fill="#FFC847"/>
<path d="M327.167 174.045H300.552C299.828 174.045 299.24 173.459 299.24 172.735C299.24 172.012 299.828 171.425 300.552 171.425H327.167C327.891 171.425 328.477 172.012 328.477 172.735C328.477 173.459 327.891 174.045 327.167 174.045Z" fill="#FFC847"/>
<path d="M334.126 162.621V164.447H219.27V162.621C219.27 159.234 222.019 156.487 225.408 156.487H327.989C331.378 156.487 334.126 159.234 334.126 162.621Z" fill="#8F6400"/>
<path d="M312.477 160.611C312.477 161.396 311.84 162.033 311.054 162.033C310.269 162.033 309.632 161.396 309.632 160.611C309.632 159.826 310.269 159.188 311.054 159.188C311.84 159.188 312.477 159.826 312.477 160.611Z" fill="#FFD470"/>
<path d="M319.757 160.611C319.757 161.396 319.12 162.033 318.334 162.033C317.548 162.033 316.912 161.396 316.912 160.611C316.912 159.826 317.548 159.188 318.334 159.188C319.12 159.188 319.757 159.826 319.757 160.611Z" fill="#FFD470"/>
<path d="M327.037 160.611C327.037 161.396 326.4 162.033 325.614 162.033C324.828 162.033 324.191 161.396 324.191 160.611C324.191 159.826 324.828 159.188 325.614 159.188C326.4 159.188 327.037 159.826 327.037 160.611Z" fill="#FFD470"/>
<path d="M254.829 152.61H232.098C228.726 152.61 225.994 149.879 225.994 146.508V123.788C225.994 120.418 228.726 117.686 232.098 117.686H254.829C258.2 117.686 260.934 120.418 260.934 123.788V146.508C260.934 149.879 258.2 152.61 254.829 152.61Z" stroke="#B88100" stroke-width="1.19467" stroke-miterlimit="10"/>
<path d="M238.013 130.097L232.979 135.128L238.053 140.199" stroke="#B88100" stroke-width="2.22933" stroke-miterlimit="10" stroke-linecap="round" stroke-linejoin="round"/>
<path d="M248.914 130.097L253.947 135.128L248.874 140.199" stroke="#B88100" stroke-width="2.22933" stroke-miterlimit="10" stroke-linecap="round" stroke-linejoin="round"/>
<path d="M245.821 130.097L241.106 140.199" stroke="#B88100" stroke-width="2.22933" stroke-miterlimit="10" stroke-linecap="round" stroke-linejoin="round"/>
<path d="M334.126 32.4443V103.493C334.126 107.349 331.002 110.472 327.144 110.472H226.253C222.403 110.472 219.27 107.349 219.27 103.493V32.4443C219.27 28.5877 222.403 25.4649 226.253 25.4649H327.144C331.002 25.4649 334.126 28.5877 334.126 32.4443Z" fill="#FFC847"/>
<path d="M327.51 47.9133C327.51 57.1026 320.058 64.5513 310.865 64.5513C301.671 64.5513 294.219 57.1026 294.219 47.9133C294.219 38.7241 301.671 31.2754 310.865 31.2754C320.058 31.2754 327.51 38.7241 327.51 47.9133Z" fill="#FFF3D6"/>
<path d="M286.784 110.472H226.253C222.403 110.472 219.27 107.349 219.27 103.493V92.3069L245.758 46.4458C247.141 44.0482 250.607 44.0482 251.99 46.4458L271.99 81.0698L286.844 106.786C287.561 108.015 287.45 109.414 286.784 110.472Z" fill="#FFE7AD"/>
<path d="M312.888 110.472H255.003L271.99 81.0698L281.141 65.2254C282.387 63.0667 285.503 63.0667 286.75 65.2254L312.888 110.472Z" fill="#FFF3D6"/>
<path d="M418.577 123.321H373.28C370.377 123.321 368.024 125.674 368.024 128.575V139.271C368.024 141.948 370.027 144.157 372.617 144.483C372.997 144.531 373.28 144.853 373.28 145.236V151.09C373.28 151.429 373.715 151.568 373.912 151.293L378.526 144.844C378.669 144.643 378.901 144.525 379.147 144.525H418.577C421.481 144.525 423.834 142.172 423.834 139.271V128.575C423.834 125.674 421.481 123.321 418.577 123.321Z" stroke="#FFE7AD" stroke-width="1.19467" stroke-miterlimit="10"/>
<path d="M380.229 133.907C380.229 134.863 379.454 135.637 378.499 135.637C377.543 135.637 376.768 134.863 376.768 133.907C376.768 132.951 377.543 132.178 378.499 132.178C379.454 132.178 380.229 132.951 380.229 133.907Z" stroke="#FFE7AD" stroke-width="1.19467" stroke-miterlimit="10"/>
<path d="M388.944 133.907C388.944 134.863 388.169 135.637 387.214 135.637C386.258 135.637 385.483 134.863 385.483 133.907C385.483 132.951 386.258 132.178 387.214 132.178C388.169 132.178 388.944 132.951 388.944 133.907Z" stroke="#FFE7AD" stroke-width="1.19467" stroke-miterlimit="10"/>
<path d="M397.66 133.907C397.66 134.863 396.885 135.637 395.929 135.637C394.973 135.637 394.198 134.863 394.198 133.907C394.198 132.951 394.973 132.178 395.929 132.178C396.885 132.178 397.66 132.951 397.66 133.907Z" stroke="#FFE7AD" stroke-width="1.19467" stroke-miterlimit="10"/>
<path d="M406.375 133.907C406.375 134.863 405.599 135.637 404.643 135.637C403.688 135.637 402.913 134.863 402.913 133.907C402.913 132.951 403.688 132.178 404.643 132.178C405.599 132.178 406.375 132.951 406.375 133.907Z" stroke="#FFE7AD" stroke-width="1.19467" stroke-miterlimit="10"/>
<path d="M415.09 133.907C415.09 134.863 414.315 135.637 413.358 135.637C412.403 135.637 411.628 134.863 411.628 133.907C411.628 132.951 412.403 132.178 413.358 132.178C414.315 132.178 415.09 132.951 415.09 133.907Z" stroke="#FFE7AD" stroke-width="1.19467" stroke-miterlimit="10"/>
<path d="M134.496 157.366H179.794C182.697 157.366 185.049 159.719 185.049 162.62V173.316C185.049 175.993 183.047 178.202 180.457 178.528C180.077 178.576 179.794 178.898 179.794 179.281V185.135C179.794 185.474 179.359 185.613 179.162 185.338L174.548 178.889C174.405 178.688 174.173 178.57 173.927 178.57H134.496C131.593 178.57 129.24 176.218 129.24 173.316V162.62C129.24 159.719 131.593 157.366 134.496 157.366Z" stroke="#FFE7AD" stroke-width="1.19467" stroke-miterlimit="10"/>
<path d="M172.844 167.952C172.844 168.908 173.62 169.682 174.575 169.682C175.531 169.682 176.306 168.908 176.306 167.952C176.306 166.996 175.531 166.223 174.575 166.223C173.62 166.223 172.844 166.996 172.844 167.952Z" stroke="#FFE7AD" stroke-width="1.19467" stroke-miterlimit="10"/>
<path d="M164.129 167.952C164.129 168.908 164.904 169.682 165.86 169.682C166.816 169.682 167.591 168.908 167.591 167.952C167.591 166.996 166.816 166.223 165.86 166.223C164.904 166.223 164.129 166.996 164.129 167.952Z" stroke="#FFE7AD" stroke-width="1.19467" stroke-miterlimit="10"/>
<path d="M155.414 167.952C155.414 168.908 156.189 169.682 157.145 169.682C158.101 169.682 158.876 168.908 158.876 167.952C158.876 166.996 158.101 166.223 157.145 166.223C156.189 166.223 155.414 166.996 155.414 167.952Z" stroke="#FFE7AD" stroke-width="1.19467" stroke-miterlimit="10"/>
<path d="M146.699 167.952C146.699 168.908 147.474 169.682 148.43 169.682C149.386 169.682 150.161 168.908 150.161 167.952C150.161 166.996 149.386 166.223 148.43 166.223C147.474 166.223 146.699 166.996 146.699 167.952Z" stroke="#FFE7AD" stroke-width="1.19467" stroke-miterlimit="10"/>
<path d="M137.984 167.952C137.984 168.908 138.759 169.682 139.714 169.682C140.671 169.682 141.446 168.908 141.446 167.952C141.446 166.996 140.671 166.223 139.714 166.223C138.759 166.223 137.984 166.996 137.984 167.952Z" stroke="#FFE7AD" stroke-width="1.19467" stroke-miterlimit="10"/>
<path d="M408.057 85.8004H325.498C320.944 85.8004 317.253 82.1111 317.253 77.56C317.253 73.0088 320.944 69.3195 325.498 69.3195H408.057C412.611 69.3195 416.302 73.0088 416.302 77.56C416.302 82.1111 412.611 85.8004 408.057 85.8004Z" fill="#FFE7AD"/>
<path d="M408.057 85.8004H325.498C320.944 85.8004 317.253 82.1111 317.253 77.56C317.253 73.0088 320.944 69.3195 325.498 69.3195H408.057C412.611 69.3195 416.302 73.0088 416.302 77.56C416.302 82.1111 412.611 85.8004 408.057 85.8004Z" stroke="#B88100" stroke-width="1.19467" stroke-miterlimit="10"/>
<path d="M406.848 76.9918C406.848 79.4116 404.885 81.374 402.463 81.374C400.042 81.374 398.079 79.4116 398.079 76.9918C398.079 74.5712 400.042 72.6096 402.463 72.6096C404.885 72.6096 406.848 74.5712 406.848 76.9918Z" stroke="#B88100" stroke-width="2.22933" stroke-miterlimit="10"/>
<path d="M405.563 80.0904L407.984 82.5101" stroke="#B88100" stroke-width="2.22933" stroke-miterlimit="10" stroke-linecap="round"/>
<path d="M282.994 309.922H262.224C258.59 309.922 255.645 306.977 255.645 303.345V282.585C255.645 278.953 258.59 276.008 262.224 276.008H282.994C286.628 276.008 289.574 278.953 289.574 282.585V303.345C289.574 306.977 286.628 309.922 282.994 309.922Z" fill="#664700"/>
<path d="M276.811 309.922H256.041C252.407 309.922 249.461 306.977 249.461 303.345V282.585C249.461 278.953 252.407 276.008 256.041 276.008H276.811C280.445 276.008 283.391 278.953 283.391 282.585V303.345C283.391 306.977 280.445 309.922 276.811 309.922Z" fill="#B88100"/>
<path d="M262.419 286.564L272.158 292.184C272.76 292.532 272.76 293.399 272.158 293.746L262.419 299.366C261.818 299.713 261.066 299.279 261.066 298.585V287.345C261.066 286.651 261.818 286.217 262.419 286.564Z" fill="#FFE7AD"/>
<path d="M376.991 95.2936H359.553C358.829 95.2936 358.242 94.7074 358.242 93.9839C358.242 93.2603 358.829 92.6742 359.553 92.6742H376.991C377.715 92.6742 378.302 93.2603 378.302 93.9839C378.302 94.7074 377.715 95.2936 376.991 95.2936Z" fill="#FFF3D6"/>
<path d="M394.437 95.2936H381.817C381.093 95.2936 380.507 94.7074 380.507 93.9839C380.507 93.2603 381.093 92.6742 381.817 92.6742H394.437C395.161 92.6742 395.748 93.2603 395.748 93.9839C395.748 94.7074 395.161 95.2936 394.437 95.2936Z" fill="#FFF3D6"/>
<path d="M366.962 101.053H359.553C358.829 101.053 358.243 100.467 358.243 99.7431C358.243 99.0196 358.829 98.4334 359.553 98.4334H366.962C367.686 98.4334 368.272 99.0196 368.272 99.7431C368.272 100.467 367.686 101.053 366.962 101.053Z" fill="#FFF3D6"/>
<path d="M394.437 101.053H371.36C370.636 101.053 370.05 100.467 370.05 99.7431C370.05 99.0196 370.636 98.4334 371.36 98.4334H394.437C395.161 98.4334 395.748 99.0196 395.748 99.7431C395.748 100.467 395.161 101.053 394.437 101.053Z" fill="#FFF3D6"/>
<path d="M382.54 106.812H359.553C358.829 106.812 358.242 106.226 358.242 105.502C358.242 104.779 358.829 104.193 359.553 104.193H382.54C383.264 104.193 383.85 104.779 383.85 105.502C383.85 106.226 383.264 106.812 382.54 106.812Z" fill="#FFF3D6"/>
<path d="M394.437 106.812H387.028C386.304 106.812 385.718 106.226 385.718 105.502C385.718 104.779 386.304 104.193 387.028 104.193H394.437C395.161 104.193 395.748 104.779 395.748 105.502C395.748 106.226 395.161 106.812 394.437 106.812Z" fill="#FFF3D6"/>
<path d="M156.169 229.074H95.2921C93.4892 229.074 92.0278 227.613 92.0278 225.812V195.096C92.0278 193.294 93.4892 191.834 95.2921 191.834H156.169C157.971 191.834 159.432 193.294 159.432 195.096V225.812C159.432 227.613 157.971 229.074 156.169 229.074Z" fill="#664700"/>
<path d="M94.8928 196.864H156.568" stroke="#FFE7AD" stroke-width="1.19467" stroke-miterlimit="10" stroke-linecap="round"/>
<path d="M155.687 194.305C155.687 194.717 155.352 195.051 154.94 195.051C154.527 195.051 154.193 194.717 154.193 194.305C154.193 193.892 154.527 193.558 154.94 193.558C155.352 193.558 155.687 193.892 155.687 194.305Z" fill="#FFE7AD"/>
<path d="M151.792 194.305C151.792 194.717 151.458 195.051 151.045 195.051C150.633 195.051 150.298 194.717 150.298 194.305C150.298 193.892 150.633 193.558 151.045 193.558C151.458 193.558 151.792 193.892 151.792 194.305Z" fill="#FFE7AD"/>
<path d="M147.897 194.305C147.897 194.717 147.563 195.051 147.15 195.051C146.738 195.051 146.404 194.717 146.404 194.305C146.404 193.892 146.738 193.558 147.15 193.558C147.563 193.558 147.897 193.892 147.897 194.305Z" fill="#FFE7AD"/>
<path d="M106.39 201.877H95.924C95.3546 201.877 94.8928 201.415 94.8928 200.846C94.8928 200.276 95.3546 199.815 95.924 199.815H106.39C106.959 199.815 107.421 200.276 107.421 200.846C107.421 201.415 106.959 201.877 106.39 201.877Z" fill="#E09D00"/>
<path d="M106.39 206.641H95.924C95.3546 206.641 94.8928 206.179 94.8928 205.61C94.8928 205.04 95.3546 204.579 95.924 204.579H106.39C106.959 204.579 107.421 205.04 107.421 205.61C107.421 206.179 106.959 206.641 106.39 206.641Z" fill="#E09D00"/>
<path d="M106.39 211.405H95.924C95.3546 211.405 94.8928 210.943 94.8928 210.374C94.8928 209.804 95.3546 209.342 95.924 209.342H106.39C106.959 209.342 107.421 209.804 107.421 210.374C107.421 210.943 106.959 211.405 106.39 211.405Z" fill="#E09D00"/>
<path d="M106.39 216.169H95.924C95.3546 216.169 94.8928 215.707 94.8928 215.138C94.8928 214.568 95.3546 214.106 95.924 214.106H106.39C106.959 214.106 107.421 214.568 107.421 215.138C107.421 215.707 106.959 216.169 106.39 216.169Z" fill="#E09D00"/>
<path d="M106.39 220.932H95.924C95.3546 220.932 94.8928 220.471 94.8928 219.902C94.8928 219.332 95.3546 218.87 95.924 218.87H106.39C106.959 218.87 107.421 219.332 107.421 219.902C107.421 220.471 106.959 220.932 106.39 220.932Z" fill="#E09D00"/>
<path d="M106.39 225.696H95.924C95.3546 225.696 94.8928 225.235 94.8928 224.666C94.8928 224.096 95.3546 223.634 95.924 223.634H106.39C106.959 223.634 107.421 224.096 107.421 224.666C107.421 225.235 106.959 225.696 106.39 225.696Z" fill="#E09D00"/>
<path d="M155.536 201.877H110.436C109.866 201.877 109.404 201.415 109.404 200.846C109.404 200.276 109.866 199.815 110.436 199.815H155.536C156.106 199.815 156.567 200.276 156.567 200.846C156.567 201.415 156.106 201.877 155.536 201.877Z" fill="#8F6400"/>
<path d="M155.536 206.641H110.436C109.866 206.641 109.404 206.179 109.404 205.61C109.404 205.04 109.866 204.579 110.436 204.579H155.536C156.106 204.579 156.567 205.04 156.567 205.61C156.567 206.179 156.106 206.641 155.536 206.641Z" fill="#8F6400"/>
<path d="M155.536 211.405H110.436C109.866 211.405 109.404 210.943 109.404 210.374C109.404 209.804 109.866 209.342 110.436 209.342H155.536C156.106 209.342 156.567 209.804 156.567 210.374C156.567 210.943 156.106 211.405 155.536 211.405Z" fill="#8F6400"/>
<path d="M155.536 216.169H110.436C109.866 216.169 109.404 215.707 109.404 215.138C109.404 214.568 109.866 214.106 110.436 214.106H155.536C156.106 214.106 156.567 214.568 156.567 215.138C156.567 215.707 156.106 216.169 155.536 216.169Z" fill="#8F6400"/>
<path d="M155.536 220.932H110.436C109.866 220.932 109.404 220.471 109.404 219.902C109.404 219.332 109.866 218.87 110.436 218.87H155.536C156.106 218.87 156.567 219.332 156.567 219.902C156.567 220.471 156.106 220.932 155.536 220.932Z" fill="#8F6400"/>
<path d="M155.536 225.696H110.436C109.866 225.696 109.404 225.235 109.404 224.666C109.404 224.096 109.866 223.634 110.436 223.634H155.536C156.106 223.634 156.567 224.096 156.567 224.666C156.567 225.235 156.106 225.696 155.536 225.696Z" fill="#8F6400"/>
<path d="M435.79 30.9196C435.79 46.2367 423.367 58.6538 408.043 58.6538C392.717 58.6538 380.294 46.2367 380.294 30.9196C380.294 15.6024 392.717 3.18536 408.043 3.18536C423.367 3.18536 435.79 15.6024 435.79 30.9196Z" stroke="#FFD470" stroke-width="1.05333" stroke-miterlimit="10"/>
<path d="M432.166 30.9196C432.166 44.2359 421.366 55.0318 408.042 55.0318C394.719 55.0318 383.918 44.2359 383.918 30.9196C383.918 17.6032 394.719 6.80733 408.042 6.80733C421.366 6.80733 432.166 17.6032 432.166 30.9196Z" fill="#7A5600"/>
<path d="M410.238 30.9196C410.238 32.132 409.255 33.1141 408.043 33.1141C406.83 33.1141 405.846 32.132 405.846 30.9196C405.846 29.7072 406.83 28.7251 408.043 28.7251C409.255 28.7251 410.238 29.7072 410.238 30.9196Z" fill="#FFE7AD"/>
<path d="M407.803 30.4883C407.471 30.6718 407.053 30.5523 406.869 30.2204L399.775 17.4296C399.591 17.0986 399.711 16.6805 400.043 16.4971C400.374 16.3128 400.792 16.4331 400.976 16.7641L408.071 29.5549C408.255 29.8868 408.135 30.3049 407.803 30.4883Z" fill="#FFE7AD"/>
<path d="M408.391 31.2683C408.66 31.0004 409.095 31.0004 409.363 31.2683L415.501 37.403C415.769 37.671 415.769 38.1061 415.501 38.374C415.232 38.6419 414.797 38.6419 414.529 38.374L408.391 32.2393C408.123 31.9714 408.123 31.5362 408.391 31.2683Z" fill="#FFE7AD"/>
<path d="M408.19 11.6198V8.84685" stroke="#FFE7AD" stroke-width="2.66667" stroke-miterlimit="10" stroke-linecap="round"/>
<path d="M427.351 31.0672H430.126" stroke="#FFE7AD" stroke-width="2.66667" stroke-miterlimit="10" stroke-linecap="round"/>
<path d="M407.895 50.2193V52.9923" stroke="#FFE7AD" stroke-width="2.66667" stroke-miterlimit="10" stroke-linecap="round"/>
<path d="M388.733 30.7719H385.959" stroke="#FFE7AD" stroke-width="2.66667" stroke-miterlimit="10" stroke-linecap="round"/>
<mask id="mask1_482_79" style="mask-type:luminance" maskUnits="userSpaceOnUse" x="388" y="11" width="40" height="40">
<path d="M388.417 11.3032H427.667V50.5356H388.417V11.3032Z" fill="white"/>
</mask>
<g mask="url(#mask1_482_79)">
<g opacity="0.5">
<path d="M398.516 14.1316L397.129 11.7298" stroke="#FFD470" stroke-width="1.33333" stroke-miterlimit="10" stroke-linecap="round"/>
<path d="M424.838 21.3975L427.241 20.011" stroke="#FFD470" stroke-width="1.33333" stroke-miterlimit="10" stroke-linecap="round"/>
<path d="M417.569 47.7075L418.956 50.1093" stroke="#FFD470" stroke-width="1.33333" stroke-miterlimit="10" stroke-linecap="round"/>
<path d="M391.246 40.4415L388.844 41.828" stroke="#FFD470" stroke-width="1.33333" stroke-miterlimit="10" stroke-linecap="round"/>
</g>
</g>
<mask id="mask2_482_79" style="mask-type:luminance" maskUnits="userSpaceOnUse" x="388" y="11" width="40" height="40">
<path d="M388.565 11.4508H427.52V50.388H388.565V11.4508Z" fill="white"/>
</mask>
<g mask="url(#mask2_482_79)">
<g opacity="0.5">
<path d="M391.394 21.1418L388.991 19.7553" stroke="#FFD470" stroke-width="1.33333" stroke-miterlimit="10" stroke-linecap="round"/>
<path d="M417.825 14.2794L419.212 11.8775" stroke="#FFD470" stroke-width="1.33333" stroke-miterlimit="10" stroke-linecap="round"/>
<path d="M424.69 40.6973L427.093 42.0838" stroke="#FFD470" stroke-width="1.33333" stroke-miterlimit="10" stroke-linecap="round"/>
<path d="M398.26 47.5598L396.873 49.9617" stroke="#FFD470" stroke-width="1.33333" stroke-miterlimit="10" stroke-linecap="round"/>
</g>
</g>
<path d="M115.518 167.645H85.0473C80.5359 167.645 76.8789 163.99 76.8789 159.481V129.025C76.8789 124.515 80.5359 120.86 85.0473 120.86H115.518C120.029 120.86 123.686 124.515 123.686 129.025V159.481C123.686 163.99 120.029 167.645 115.518 167.645Z" fill="#664700"/>
<path d="M113.514 163.592H79.7953C76.181 163.592 73.2505 160.664 73.2505 157.051V123.348C73.2505 119.735 76.181 116.807 79.7953 116.807H113.514C117.128 116.807 120.059 119.735 120.059 123.348V157.051C120.059 160.664 117.128 163.592 113.514 163.592Z" fill="#F5AB00"/>
<path d="M113.514 163.592H79.7953C76.181 163.592 73.2505 160.664 73.2505 157.051V123.348C73.2505 119.735 76.181 116.807 79.7953 116.807H113.514C117.128 116.807 120.059 119.735 120.059 123.348V157.051C120.059 160.664 117.128 163.592 113.514 163.592Z" stroke="#FFD470" stroke-width="1.33333" stroke-miterlimit="10"/>
<path d="M90.5752 132.163C90.5752 128.879 93.2497 126.206 96.5345 126.206C99.8201 126.206 102.495 128.879 102.495 132.163V134.843H90.5752V132.163ZM104.76 134.843H104.515V132.163C104.515 127.764 100.936 124.185 96.5345 124.185C92.1331 124.185 88.5547 127.764 88.5547 132.163V134.843H88.5009C87.264 134.843 86.261 135.845 86.261 137.082V147.181C86.261 148.418 87.264 149.419 88.5009 149.419H104.76C105.997 149.419 106.999 148.418 106.999 147.181V137.082C106.999 135.845 105.997 134.843 104.76 134.843Z" fill="#FFD470"/>
<path d="M99.2585 140.034C99.2585 138.421 97.7911 137.151 96.1188 137.484C95.1329 137.68 94.3151 138.489 94.1094 139.473C93.8618 140.659 94.4227 141.741 95.3412 142.278C95.5281 142.387 95.634 142.592 95.5776 142.801L95.1243 144.472C94.8554 145.466 95.6041 146.444 96.6344 146.444C97.6647 146.444 98.4134 145.466 98.1436 144.472L97.6955 142.819C97.6383 142.607 97.7476 142.4 97.9379 142.291C98.7258 141.845 99.2585 141.004 99.2585 140.034Z" fill="#F5AB00"/>
<path d="M106.039 152.961H87.2216C86.6906 152.961 86.2612 152.531 86.2612 152.001C86.2612 151.472 86.6906 151.042 87.2216 151.042H106.039C106.569 151.042 106.999 151.472 106.999 152.001C106.999 152.531 106.569 152.961 106.039 152.961Z" fill="#FFD470"/>
<path d="M106.039 156.214H87.2216C86.6906 156.214 86.2612 155.784 86.2612 155.254C86.2612 154.725 86.6906 154.295 87.2216 154.295H106.039C106.569 154.295 106.999 154.725 106.999 155.254C106.999 155.784 106.569 156.214 106.039 156.214Z" fill="#FFD470"/>
<path d="M408.761 222.265H390.823C388.167 222.265 386.013 220.113 386.013 217.458V199.528C386.013 196.874 388.167 194.722 390.823 194.722H408.761C411.417 194.722 413.57 196.874 413.57 199.528V217.458C413.57 220.113 411.417 222.265 408.761 222.265Z" fill="#664700"/>
<path d="M407.581 219.879H387.731C385.603 219.879 383.878 218.154 383.878 216.028V196.186C383.878 194.06 385.603 192.336 387.731 192.336H407.581C409.709 192.336 411.434 194.06 411.434 196.186V216.028C411.434 218.154 409.709 219.879 407.581 219.879Z" fill="#F5AB00"/>
<path d="M407.581 219.879H387.731C385.603 219.879 383.878 218.154 383.878 216.028V196.186C383.878 194.06 385.603 192.336 387.731 192.336H407.581C409.709 192.336 411.434 194.06 411.434 196.186V216.028C411.434 218.154 409.709 219.879 407.581 219.879Z" stroke="#FFD470" stroke-width="1.33333" stroke-miterlimit="10"/>
<path d="M392.089 214.333C392.011 214.333 391.933 214.322 391.857 214.3C391.402 214.173 391.139 213.701 391.267 213.248L395.434 198.503C395.561 198.048 396.036 197.783 396.487 197.914C396.942 198.041 397.205 198.513 397.077 198.966L392.909 213.711C392.803 214.088 392.461 214.333 392.089 214.333Z" fill="#FFE7AD"/>
<path d="M399.057 214.333C398.979 214.333 398.902 214.322 398.825 214.3C398.37 214.173 398.107 213.701 398.235 213.248L402.403 198.503C402.531 198.048 403.005 197.783 403.456 197.914C403.911 198.041 404.174 198.513 404.046 198.966L399.877 213.711C399.772 214.088 399.429 214.333 399.057 214.333Z" fill="#FFE7AD"/>
<path d="M405.032 203.619H390.28C389.808 203.619 389.427 203.238 389.427 202.766C389.427 202.294 389.808 201.913 390.28 201.913H405.032C405.504 201.913 405.885 202.294 405.885 202.766C405.885 203.238 405.504 203.619 405.032 203.619Z" fill="#FFE7AD"/>
<path d="M405.032 210.355H390.28C389.808 210.355 389.427 209.973 389.427 209.502C389.427 209.03 389.808 208.648 390.28 208.648H405.032C405.504 208.648 405.885 209.03 405.885 209.502C405.885 209.973 405.504 210.355 405.032 210.355Z" fill="#FFE7AD"/>
<path d="M151.554 135.148H140.885C140.239 135.148 139.715 134.624 139.715 133.979C139.715 133.333 140.239 132.81 140.885 132.81H151.554C152.2 132.81 152.723 133.333 152.723 133.979C152.723 134.624 152.2 135.148 151.554 135.148Z" fill="#FFF3D6"/>
<path d="M162.301 140.339H140.885C140.239 140.339 139.715 139.815 139.715 139.17C139.715 138.524 140.239 138 140.885 138H162.301C162.947 138 163.47 138.524 163.47 139.17C163.47 139.815 162.947 140.339 162.301 140.339Z" fill="#FFF3D6"/>
<path d="M143.414 145.529H140.885C140.239 145.529 139.715 145.005 139.715 144.36C139.715 143.714 140.239 143.19 140.885 143.19H143.414C144.06 143.19 144.584 143.714 144.584 144.36C144.584 145.005 144.06 145.529 143.414 145.529Z" fill="#FFF3D6"/>
<path d="M162.301 145.529H147.389C146.743 145.529 146.219 145.005 146.219 144.36C146.219 143.714 146.743 143.19 147.389 143.19H162.301C162.947 143.19 163.47 143.714 163.47 144.36C163.47 145.005 162.947 145.529 162.301 145.529Z" fill="#FFF3D6"/>
<path d="M162.301 135.148H155.835C155.188 135.148 154.664 134.624 154.664 133.979C154.664 133.333 155.188 132.81 155.835 132.81H162.301C162.947 132.81 163.47 133.333 163.47 133.979C163.47 134.624 162.947 135.148 162.301 135.148Z" fill="#FFF3D6"/>
</g>
</g>
<defs>
<clipPath id="clip0_482_79">
<rect width="556" height="310" fill="white"/>
</clipPath>
</defs>
</svg>
